<?xml version="1.0" encoding="iso-8859-1"?>
<!-- Generator: Adobe Illustrator 19.0.0, SVG Export Plug-In . SVG Version: 6.00 Build 0)  -->
<svg xmlns="http://www.w3.org/2000/svg" xmlns:xlink="http://www.w3.org/1999/xlink" version="1.1" id="Layer_1" x="0px" y="0px" viewBox="0 0 512 512" style="enable-background:new 0 0 512 512;" xml:space="preserve" width="512px" height="512px">
<g>
	<g>
		<g>
			<path d="M205.945,287.686c-2.651,32.031,11.719,68.989,28.529,61.549c10.948-4.844,6.894-21.422,9.511-32.497     c1.695-7.295,4.882-10.19,7.928-11.114c6.793-1.933,12.506,0.489,15.065,7.45c4.655,13.715-1.462,30.202,10.662,36.21     c16.733,7.206,31.081-29.382,28.415-61.599c4.006-3.188,7.898-7.251,10.755-10.868c2.568-3.251,2.015-7.968-1.235-10.536     c-3.251-2.566-7.968-2.014-10.536,1.236c-8.818,11.186-15.261,10.501-14.327,17.69c2.533,19.544-2.228,36.258-6.523,44.687     c-0.157-6.104-0.354-12.835-2.096-18.699l0.009,0.028c-0.148-0.555-0.429-1.517-0.667-2.23h0.001     c-8.544-25.339-44.794-27.028-52.135,4.674c-1.374,6.248-1.349,10.952-1.485,16.225c-4.295-8.432-9.057-25.145-6.524-44.685     c0.8-6.169-3.861-6.461-11.524-14.415c-5.122-5.586-8.961-11.952-11.551-18.882c-8.224-21.978,0.152-39.052-0.785-36.66     c3.341-8.531,7.812-14.774,15.771-19.547c7.778-4.436,16.816-5.189,22.82-3.814c16.209,3.715,17.489,10.947,24.129,6.54     c32.799-21.775,67.562,9.637,54.653,50.53c-1.246,3.949,0.945,8.162,4.895,9.41c3.949,1.246,8.162-0.945,9.41-4.896     c3.351-10.62,4.327-21.989,2.244-33.482l-0.024-0.125c-7.03-37.338-43.489-54.205-75.329-36.465     c-14.871-8.286-32.469-9.743-47.796-2.039h0.001C169.569,200.939,171.441,260.088,205.945,287.686z" fill="#FFFFFF"/>
			<path d="M490.163,46.6h-33.517c-4.143,0-7.5,3.357-7.5,7.5s3.357,7.5,7.5,7.5h33.517c3.77,0,6.836,3.066,6.836,6.836v55.72     c-5.67-1.796,3.009-1.096-322.083-1.096l-28.781-38.783c-1.414-1.906-3.648-3.03-6.022-3.03H54.127V68.437     c0-3.77,3.066-6.836,6.836-6.836h369.68c4.143,0,7.5-3.357,7.5-7.5s-3.357-7.5-7.5-7.5H60.964     c-12.041,0-21.837,9.797-21.837,21.837v12.811H21.837C9.797,81.247,0,91.043,0,103.083v340.48     C0,455.604,9.797,465.4,21.837,465.4h39.784c4.143,0,7.5-3.357,7.5-7.5s-3.357-7.5-7.5-7.5H21.837     c-3.77,0-6.836-3.066-6.836-6.836v-340.48c0-3.769,3.066-6.835,6.836-6.835c13.544,0,102.958,0,114.501,0l28.781,38.783     c1.414,1.906,3.648,3.03,6.023,3.03h319.02c3.77,0,6.836,3.066,6.836,6.836v298.664c0,3.77-3.066,6.836-6.836,6.836H86.623     c-4.143,0-7.5,3.357-7.5,7.5s3.357,7.5,7.5,7.5h403.539c12.041,0,21.837-9.797,21.837-21.837c0-16.536,0-370.918,0-375.127     C512,56.396,502.203,46.6,490.163,46.6z" fill="#FFFFFF"/>
			<path d="M149.04,379.357c0,4.143,3.357,7.5,7.5,7.5h204.294c4.143,0,7.5-3.357,7.5-7.5s-3.357-7.5-7.5-7.5H156.54     C152.398,371.857,149.04,375.214,149.04,379.357z" fill="#FFFFFF"/>
			<path d="M156.54,417.847h204.294c4.143,0,7.5-3.357,7.5-7.5s-3.357-7.5-7.5-7.5H156.54c-4.143,0-7.5,3.357-7.5,7.5     S152.398,417.847,156.54,417.847z" fill="#FFFFFF"/>
		</g>
	</g>
</g>
<g>
</g>
<g>
</g>
<g>
</g>
<g>
</g>
<g>
</g>
<g>
</g>
<g>
</g>
<g>
</g>
<g>
</g>
<g>
</g>
<g>
</g>
<g>
</g>
<g>
</g>
<g>
</g>
<g>
</g>
</svg>
