<svg 
 xmlns="http://www.w3.org/2000/svg"
 xmlns:xlink="http://www.w3.org/1999/xlink"
 width="32px" height="26px">
<path fill-rule="evenodd"  fill="rgb(255, 255, 255)"
 d="M31.764,22.813 L28.848,25.761 C28.696,25.915 28.493,26.000 28.278,26.000 C28.062,26.000 27.860,25.915 27.708,25.761 L20.792,18.768 C20.640,18.614 20.556,18.410 20.556,18.192 C20.556,17.974 20.640,17.769 20.792,17.615 L21.111,17.292 C21.111,17.292 21.201,17.166 21.102,17.066 C20.838,16.799 20.150,16.104 19.892,15.842 C19.787,15.736 19.614,15.853 19.614,15.853 C19.483,15.938 19.391,16.002 19.291,16.117 C19.104,16.332 19.002,16.622 18.888,16.888 C18.271,18.326 17.616,19.571 16.994,20.487 C16.211,21.642 15.551,22.180 14.918,22.180 C14.680,22.180 14.095,22.088 13.795,21.237 C13.552,20.547 13.337,19.751 13.109,18.907 C12.904,18.148 12.695,17.376 12.462,16.669 C12.452,16.638 12.446,16.571 12.336,16.541 C11.280,16.162 10.400,15.603 9.556,14.817 C9.541,14.802 9.505,14.768 9.448,14.873 C8.831,15.862 8.407,17.494 8.017,18.883 C7.779,19.733 7.555,20.535 7.303,21.240 C6.997,22.094 6.407,22.186 6.167,22.186 C5.532,22.186 4.872,21.657 4.090,20.519 C3.466,19.611 2.812,18.378 2.199,16.954 C0.822,13.754 -0.000,10.457 -0.000,8.133 C-0.000,6.478 0.580,4.910 1.633,3.718 C2.743,2.461 4.271,1.768 5.936,1.768 C7.007,1.768 7.959,1.941 8.846,2.675 C8.943,2.755 9.063,2.737 9.300,2.500 C10.898,0.892 13.013,0.000 15.267,0.000 C17.521,0.000 19.641,0.888 21.235,2.500 C22.828,4.111 23.706,6.255 23.706,8.534 C23.706,10.377 23.132,12.131 22.070,13.587 C22.030,13.641 21.967,13.768 22.068,13.870 C22.068,13.870 22.877,14.689 23.187,15.002 C23.285,15.102 23.386,14.992 23.386,14.992 L23.707,14.666 C23.860,14.512 24.062,14.428 24.278,14.428 C24.493,14.428 24.696,14.512 24.848,14.666 L31.764,21.659 C31.916,21.813 32.000,22.018 32.000,22.236 C32.000,22.454 31.916,22.659 31.764,22.813 ZM14.904,20.845 C14.930,20.919 14.992,20.929 15.068,20.918 C15.280,20.888 15.637,20.316 15.992,19.792 C16.500,19.044 17.019,18.090 17.544,16.919 C17.555,16.896 17.613,16.759 17.458,16.808 C16.722,17.016 16.106,17.068 15.267,17.068 C14.778,17.068 14.441,17.021 13.900,16.957 C13.876,16.954 13.832,16.979 13.849,17.041 C13.999,17.584 14.700,20.265 14.904,20.845 ZM8.103,3.636 C7.278,3.169 6.604,2.997 5.936,2.997 C2.981,2.997 1.215,5.608 1.215,8.133 C1.215,10.264 2.019,13.456 3.313,16.464 C3.887,17.797 4.517,18.988 5.087,19.818 C5.721,20.739 5.996,20.961 6.087,20.961 C6.184,20.961 6.198,20.839 6.219,20.779 C6.455,20.120 6.615,19.383 6.846,18.558 L6.848,18.549 C7.216,17.236 7.597,15.879 8.101,14.816 C8.256,14.488 8.419,14.200 8.590,13.952 C8.614,13.917 8.666,13.835 8.565,13.722 C7.376,12.216 6.828,10.489 6.828,8.534 C6.828,6.850 7.307,5.240 8.201,3.864 C8.229,3.821 8.246,3.718 8.103,3.636 ZM22.416,8.534 C22.416,6.603 21.672,4.788 20.322,3.423 C18.972,2.057 17.177,1.305 15.267,1.305 C13.358,1.305 11.562,2.057 10.212,3.423 C8.862,4.788 8.118,6.603 8.118,8.534 C8.118,10.465 8.862,12.281 10.212,13.646 C11.562,15.011 13.358,15.763 15.267,15.763 C17.177,15.763 18.972,15.011 20.322,13.646 C21.672,12.280 22.416,10.465 22.416,8.534 ZM30.424,22.058 C29.564,21.187 25.780,17.362 24.414,15.980 C24.281,15.846 24.168,15.954 24.168,15.954 L23.851,16.274 C23.699,16.428 23.497,16.512 23.281,16.512 C23.066,16.512 22.863,16.428 22.711,16.274 L21.289,14.837 C21.289,14.837 21.206,14.728 21.131,14.804 C21.079,14.856 20.991,14.945 20.924,15.013 C20.861,15.077 20.960,15.169 20.960,15.169 L22.382,16.607 C22.696,16.925 22.696,17.442 22.382,17.760 L22.043,18.102 C22.043,18.102 21.945,18.181 22.049,18.286 C23.396,19.648 27.073,23.366 28.041,24.345 C28.192,24.498 28.314,24.547 28.449,24.411 C28.938,23.917 29.917,22.927 30.406,22.432 C30.530,22.307 30.537,22.172 30.424,22.058 ZM16.122,9.543 C15.678,9.719 15.209,9.812 14.766,9.812 C13.821,9.812 13.074,9.399 12.816,8.734 C12.424,7.722 13.269,6.437 14.699,5.871 C15.142,5.695 15.611,5.602 16.054,5.602 C16.999,5.602 17.746,6.015 18.004,6.680 C18.194,7.171 18.102,7.741 17.745,8.283 C17.390,8.822 16.813,9.269 16.122,9.543 Z"/>
</svg>