<svg 
 xmlns="http://www.w3.org/2000/svg"
 xmlns:xlink="http://www.w3.org/1999/xlink"
 width="32px" height="30px">
<path fill-rule="evenodd"  fill="rgb(255, 255, 255)"
 d="M29.538,2.822 C27.886,1.007 25.601,0.006 23.126,0.006 C21.191,0.006 19.091,1.143 17.557,1.970 C16.958,2.293 16.221,2.693 15.990,2.719 C15.760,2.693 15.022,2.293 14.423,1.970 C12.896,1.143 10.803,-0.000 8.854,-0.000 C6.372,-0.000 4.095,1.001 2.442,2.816 C0.869,4.547 -0.000,6.820 -0.000,9.229 C-0.000,12.672 1.257,17.574 3.377,22.340 C4.312,24.465 5.319,26.292 6.274,27.636 C7.399,29.225 8.367,30.000 9.223,30.000 C9.598,30.000 10.283,29.845 10.671,28.786 C11.059,27.746 11.402,26.538 11.770,25.272 C12.745,21.888 13.956,17.690 15.944,17.690 L16.069,17.690 C16.951,17.690 17.735,18.426 18.479,19.938 C19.203,21.429 19.756,23.393 20.282,25.305 C20.638,26.564 20.967,27.759 21.336,28.786 C21.711,29.839 22.395,29.987 22.771,29.987 C23.620,29.987 24.588,29.199 25.713,27.584 C26.668,26.228 27.662,24.375 28.610,22.237 C30.736,17.438 32.000,12.568 32.000,9.229 C31.987,6.827 31.111,4.553 29.538,2.822 ZM27.464,21.765 C26.562,23.806 25.575,25.634 24.680,26.913 C23.639,28.398 22.981,28.766 22.751,28.785 C22.606,28.798 22.560,28.624 22.474,28.385 C22.119,27.404 21.790,26.234 21.441,24.994 C20.901,23.031 20.328,21.010 19.558,19.421 C18.597,17.444 17.451,16.489 16.043,16.489 L15.918,16.489 C14.562,16.489 13.436,17.438 12.488,19.401 C11.718,20.977 11.132,22.999 10.566,24.949 C10.204,26.202 9.868,27.384 9.493,28.385 C9.420,28.579 9.321,28.734 9.203,28.805 C9.045,28.889 8.545,28.753 7.268,26.958 C6.372,25.692 5.385,23.883 4.490,21.868 C4.075,20.932 3.693,19.995 3.351,19.053 C4.575,18.077 9.420,14.622 16.043,14.622 C20.045,14.622 23.370,15.888 25.456,16.953 C26.944,17.709 28.030,18.484 28.610,18.923 C28.267,19.860 27.879,20.816 27.464,21.765 ZM26.240,15.597 C23.995,14.441 20.407,13.066 16.056,13.066 C11.738,13.066 8.150,14.441 5.905,15.597 C4.536,16.301 3.489,17.005 2.824,17.496 C1.810,14.389 1.224,11.445 1.224,9.236 C1.224,5.289 4.081,1.208 8.848,1.208 C10.256,1.208 11.935,1.892 13.206,2.687 C13.515,2.880 13.995,3.255 14.371,3.533 C14.746,3.811 15.213,4.133 15.740,4.437 C15.997,4.592 16.273,4.747 16.576,4.870 C19.762,6.200 22.586,5.477 22.507,5.341 C22.435,5.218 20.500,5.212 18.643,4.734 C17.649,4.482 16.741,3.972 16.787,3.817 C16.826,3.688 17.465,3.384 18.149,3.023 C19.565,2.261 21.500,1.208 23.120,1.208 C27.899,1.208 30.743,5.289 30.743,9.236 C30.743,11.374 30.163,14.286 29.143,17.373 C28.485,16.895 27.504,16.243 26.240,15.597 ZM9.670,21.862 C8.894,22.818 7.814,23.251 7.261,22.818 C6.708,22.385 6.886,21.261 7.663,20.299 C8.439,19.343 9.519,18.911 10.072,19.343 C10.625,19.776 10.447,20.906 9.670,21.862 ZM24.785,20.545 C25.305,21.649 25.213,22.785 24.568,23.076 C23.923,23.367 22.981,22.708 22.461,21.591 C21.941,20.486 22.033,19.350 22.679,19.059 C23.324,18.781 24.265,19.440 24.785,20.545 Z"/>
</svg>