<svg 
 xmlns="http://www.w3.org/2000/svg"
 xmlns:xlink="http://www.w3.org/1999/xlink"
 width="28px" height="32px">
<path fill-rule="evenodd"  fill="rgb(255, 255, 255)"
 d="M26.361,22.648 C24.329,26.252 15.716,31.434 15.350,31.653 C14.977,31.877 14.494,32.000 13.993,32.000 C13.487,32.000 13.001,31.875 12.625,31.648 C12.263,31.429 3.728,26.251 1.696,22.648 C-0.343,19.032 0.018,7.992 0.034,7.524 C0.067,6.594 0.724,5.610 1.562,5.234 L12.642,0.258 C13.013,0.092 13.491,0.000 13.988,0.000 C14.485,0.000 14.963,0.092 15.333,0.258 L26.413,5.234 C27.250,5.609 27.910,6.591 27.949,7.518 C27.968,7.987 28.402,19.029 26.361,22.648 ZM26.445,7.582 C26.431,7.239 26.113,6.767 25.804,6.628 L14.723,1.652 C14.546,1.573 14.271,1.525 13.988,1.525 C13.705,1.525 13.430,1.573 13.252,1.652 L2.172,6.628 C1.864,6.766 1.550,7.236 1.538,7.577 C1.431,10.647 1.486,19.201 3.003,21.892 C4.839,25.148 13.310,30.286 13.395,30.338 C13.537,30.424 13.761,30.475 13.993,30.475 C14.223,30.475 14.444,30.424 14.585,30.340 C14.671,30.289 23.219,25.147 25.055,21.892 C26.572,19.202 26.573,10.650 26.445,7.582 ZM19.859,23.773 C19.154,24.815 18.530,25.322 17.954,25.322 C17.678,25.322 17.175,25.208 16.907,24.445 C16.686,23.817 16.491,23.093 16.284,22.326 C15.976,21.182 15.657,19.999 15.243,19.119 C14.853,18.292 14.458,17.889 14.036,17.889 L13.964,17.889 C12.975,17.889 12.232,20.549 11.740,22.308 C11.523,23.083 11.320,23.811 11.092,24.448 C10.819,25.214 10.312,25.328 10.034,25.328 C9.456,25.328 8.832,24.829 8.127,23.802 C7.562,22.977 6.969,21.857 6.413,20.562 C5.165,17.656 4.420,14.660 4.420,12.549 C4.420,11.039 4.948,9.609 5.906,8.522 C6.917,7.375 8.309,6.743 9.825,6.743 C11.025,6.743 12.278,7.446 13.194,7.959 C13.412,8.082 13.849,8.378 14.000,8.378 C14.152,8.378 14.590,8.081 14.809,7.959 C15.728,7.445 16.984,6.743 18.175,6.743 C19.691,6.743 21.083,7.375 22.094,8.523 C23.052,9.609 23.580,11.040 23.580,12.549 C23.580,14.601 22.831,17.574 21.577,20.503 C21.017,21.809 20.424,22.939 19.859,23.773 ZM18.175,7.923 C17.283,7.923 16.179,8.540 15.373,8.991 C15.225,9.074 15.110,9.144 15.008,9.205 C14.967,9.230 14.925,9.269 14.925,9.312 C14.925,9.372 15.386,9.525 15.612,9.612 C17.037,10.166 19.004,9.925 19.004,10.053 C19.004,10.242 17.337,10.590 16.528,10.590 C15.742,10.590 14.979,10.433 14.259,10.123 C14.079,10.046 13.920,9.953 13.744,9.848 C13.414,9.651 13.133,9.445 12.925,9.287 C12.861,9.238 12.793,9.185 12.724,9.131 C12.554,8.998 12.378,8.861 12.257,8.784 C11.420,8.245 10.511,7.923 9.825,7.923 C7.171,7.923 5.585,10.275 5.585,12.549 C5.585,14.477 6.311,17.367 7.481,20.091 C7.999,21.298 8.569,22.377 9.084,23.128 C9.550,23.807 9.770,24.069 9.914,24.112 C9.973,24.130 9.988,24.073 9.998,24.046 C10.211,23.449 10.408,22.742 10.617,21.994 C10.952,20.797 11.297,19.562 11.755,18.596 C12.356,17.326 13.078,16.709 13.964,16.709 L14.036,16.709 C14.952,16.709 15.691,17.331 16.294,18.611 C16.753,19.586 17.086,20.821 17.407,22.015 C17.608,22.760 17.797,23.464 18.004,24.049 C18.017,24.086 18.047,24.098 18.078,24.070 C18.316,23.854 18.441,23.782 18.900,23.105 C19.414,22.345 19.986,21.253 20.509,20.033 C21.685,17.286 22.415,14.418 22.415,12.549 C22.415,10.275 20.829,7.923 18.175,7.923 Z"/>
</svg>