<svg 
 xmlns="http://www.w3.org/2000/svg"
 xmlns:xlink="http://www.w3.org/1999/xlink"
 width="31px" height="16px">
<path fill-rule="evenodd"  fill="rgb(255, 255, 255)"
 d="M30.770,5.524 L30.770,9.943 C30.770,10.225 30.667,10.484 30.480,10.673 C30.351,10.804 30.189,10.895 30.009,10.942 C30.272,11.109 30.444,11.357 30.488,11.637 C30.537,11.953 30.417,12.275 30.157,12.521 L27.396,15.134 C27.173,15.345 26.888,15.461 26.594,15.461 C26.211,15.461 25.856,15.264 25.645,14.934 L23.513,11.609 C23.131,12.458 22.241,13.054 21.207,13.054 L9.418,13.054 C8.545,13.054 7.776,12.629 7.327,11.987 L5.144,14.982 C4.919,15.290 4.574,15.466 4.197,15.466 C3.893,15.466 3.600,15.348 3.373,15.134 L0.613,12.520 C0.353,12.275 0.233,11.952 0.283,11.636 C0.328,11.357 0.501,11.111 0.765,10.946 C0.314,10.828 -0.000,10.436 -0.000,9.943 L-0.000,5.524 C-0.000,5.033 0.312,4.643 0.761,4.525 C0.498,4.358 0.326,4.110 0.282,3.831 C0.233,3.514 0.353,3.192 0.613,2.946 L3.373,0.333 C3.596,0.122 3.881,0.006 4.176,0.006 C4.559,0.006 4.914,0.203 5.125,0.533 L7.175,3.730 C7.586,2.950 8.437,2.413 9.418,2.413 L21.207,2.413 C22.126,2.413 22.931,2.885 23.367,3.585 L25.626,0.486 C25.851,0.178 26.196,0.001 26.573,0.001 C26.878,0.001 27.170,0.119 27.397,0.333 L30.157,2.947 C30.417,3.193 30.537,3.515 30.487,3.831 C30.442,4.110 30.268,4.357 30.005,4.522 C30.456,4.639 30.770,5.031 30.770,5.524 ZM6.913,5.541 C6.856,5.318 6.768,5.089 6.675,4.943 L4.192,1.069 C4.184,1.057 4.176,1.049 4.171,1.044 C4.166,1.047 4.156,1.054 4.146,1.064 L1.386,3.676 L4.814,5.417 C5.020,5.521 5.450,5.740 5.336,6.168 C5.273,6.409 5.047,6.570 4.774,6.570 C4.665,6.570 4.536,6.545 4.340,6.488 L1.092,5.532 L1.092,9.941 L4.378,9.003 C4.572,8.947 4.700,8.924 4.807,8.924 C5.124,8.924 5.319,9.127 5.372,9.328 C5.484,9.759 5.051,9.974 4.843,10.078 L1.391,11.795 L4.146,14.403 C4.169,14.425 4.188,14.432 4.197,14.432 C4.207,14.432 4.226,14.421 4.245,14.394 L6.656,11.086 C6.758,10.948 6.853,10.724 6.913,10.506 L6.913,5.541 ZM22.620,4.784 C22.620,4.047 21.986,3.447 21.207,3.447 L9.418,3.447 C8.639,3.447 8.005,4.047 8.005,4.784 L8.005,10.683 C8.005,11.420 8.639,12.020 9.418,12.020 L21.207,12.020 C21.986,12.020 22.620,11.420 22.620,10.683 L22.620,4.784 ZM25.927,5.390 L29.379,3.672 L26.624,1.064 C26.601,1.043 26.582,1.035 26.573,1.035 C26.563,1.035 26.544,1.047 26.525,1.073 L24.114,4.381 C23.946,4.610 23.794,5.073 23.794,5.352 L23.794,9.505 C23.794,9.793 23.937,10.278 24.095,10.524 L26.578,14.398 C26.586,14.410 26.593,14.418 26.599,14.423 C26.605,14.419 26.614,14.413 26.624,14.403 L29.384,11.791 L25.956,10.051 C25.749,9.946 25.320,9.728 25.433,9.299 C25.497,9.059 25.723,8.897 25.996,8.897 C26.104,8.897 26.234,8.922 26.430,8.979 L29.678,9.935 L29.678,5.526 L26.391,6.465 C26.198,6.520 26.070,6.544 25.963,6.544 C25.646,6.544 25.451,6.340 25.398,6.139 C25.286,5.709 25.719,5.493 25.927,5.390 Z"/>
</svg>