<svg 
 xmlns="http://www.w3.org/2000/svg"
 xmlns:xlink="http://www.w3.org/1999/xlink"
 width="27px" height="32px">
<path fill-rule="evenodd"  fill="rgb(255, 255, 255)"
 d="M24.926,2.477 C23.518,0.880 21.581,-0.000 19.470,-0.000 C17.818,-0.000 16.048,0.990 14.755,1.712 C14.327,1.952 13.688,2.344 13.500,2.344 C13.312,2.344 12.676,1.953 12.250,1.714 C10.960,0.991 9.194,-0.000 7.530,-0.000 C5.419,-0.000 3.482,0.880 2.074,2.477 C0.737,3.995 -0.000,5.992 -0.000,8.101 C-0.000,9.460 0.246,11.056 0.632,12.868 C0.996,14.573 2.148,16.009 4.583,17.095 C5.318,17.423 6.637,17.679 6.874,17.919 C7.159,18.207 7.463,19.248 7.463,19.248 C7.463,19.248 7.532,19.494 7.430,19.494 C6.868,19.494 6.411,19.957 6.411,20.527 C6.411,21.096 6.868,21.560 7.430,21.560 C7.430,21.560 7.920,21.560 8.084,21.560 C8.212,21.560 8.254,21.693 8.254,21.693 L8.607,22.797 C8.607,22.797 8.636,23.000 8.402,23.000 C7.840,23.000 7.383,23.463 7.383,24.032 C7.383,24.602 7.840,25.065 8.402,25.065 C8.402,25.065 9.007,25.065 9.208,25.065 C9.356,25.065 9.406,25.186 9.406,25.186 L9.816,26.431 C9.816,26.431 9.840,26.506 9.751,26.506 C9.659,26.506 9.381,26.506 9.381,26.506 C8.819,26.506 8.362,26.969 8.362,27.538 C8.362,28.108 8.819,28.571 9.381,28.571 C9.381,28.571 10.144,28.571 10.399,28.571 C10.537,28.571 10.558,28.681 10.558,28.681 L11.187,30.589 L11.191,30.599 C11.566,31.528 12.326,32.000 13.449,32.000 L13.511,32.000 C14.634,32.000 15.394,31.528 15.772,30.592 C15.772,30.592 16.244,29.135 16.418,28.655 C16.453,28.560 16.517,28.571 16.517,28.571 L17.619,28.571 C18.180,28.571 18.638,28.108 18.638,27.538 C18.638,26.969 18.361,26.506 17.619,26.506 C17.462,26.506 17.308,26.506 17.242,26.506 C17.138,26.506 17.202,26.326 17.202,26.326 L17.577,25.181 C17.577,25.181 17.597,25.066 17.705,25.066 C17.928,25.066 18.598,25.066 18.598,25.066 C19.160,25.066 19.617,24.602 19.617,24.033 C19.617,23.463 19.209,23.000 18.647,23.000 C18.527,23.000 18.486,23.004 18.440,23.004 C18.317,23.004 18.386,22.862 18.386,22.862 C18.386,22.862 18.652,21.971 18.765,21.628 C18.790,21.553 18.869,21.560 18.869,21.560 L19.570,21.560 C20.131,21.560 20.589,21.096 20.589,20.527 C20.589,19.957 20.131,19.494 19.570,19.494 C19.480,19.494 19.497,19.374 19.512,19.315 C19.604,18.939 19.776,18.164 20.103,17.919 C20.413,17.687 21.659,17.416 22.379,17.095 C24.761,16.032 26.008,14.427 26.321,12.966 C26.717,11.119 27.000,9.449 27.000,8.101 C27.000,5.992 26.263,3.995 24.926,2.477 ZM14.579,30.108 C14.356,30.656 13.681,30.698 13.480,30.698 C13.279,30.698 12.607,30.656 12.382,30.112 L11.898,28.640 C11.898,28.640 11.886,28.571 11.980,28.571 C12.758,28.571 14.275,28.571 15.040,28.571 C15.094,28.571 15.082,28.603 15.082,28.603 L14.579,30.108 ZM15.749,26.505 C14.627,26.505 12.391,26.505 11.260,26.505 C11.191,26.505 11.176,26.436 11.176,26.436 L10.739,25.118 C10.739,25.118 10.732,25.065 10.821,25.065 C12.182,25.065 14.866,25.065 16.214,25.065 C16.265,25.065 16.252,25.103 16.252,25.103 L15.791,26.481 C15.792,26.481 15.778,26.505 15.749,26.505 ZM16.977,22.951 C16.977,22.951 16.965,23.000 16.914,23.000 C16.428,23.000 11.734,23.000 10.112,23.000 C10.040,23.000 10.024,22.954 10.024,22.954 L9.596,21.643 C9.596,21.643 9.568,21.557 9.677,21.557 C11.797,21.557 15.445,21.560 17.368,21.560 C17.437,21.560 17.419,21.614 17.419,21.614 L16.977,22.951 ZM17.986,19.493 C15.732,19.493 8.995,19.488 8.995,19.488 C8.995,19.488 8.926,19.488 8.893,19.418 C8.798,19.217 8.613,18.715 8.539,18.429 C8.497,18.271 8.646,18.319 8.646,18.319 C10.222,18.624 11.744,18.747 13.481,18.747 C15.242,18.747 16.829,18.613 18.424,18.299 C18.424,18.299 18.535,18.279 18.509,18.351 C18.423,18.592 18.248,19.122 18.169,19.367 C18.143,19.445 18.065,19.493 17.986,19.493 ZM25.193,12.561 C25.138,12.802 24.964,13.241 24.874,13.488 C24.538,14.410 23.393,15.240 21.869,15.920 C21.087,16.270 20.202,16.567 19.239,16.805 L19.071,16.846 C17.373,17.250 15.439,17.463 13.481,17.463 C11.576,17.463 9.693,17.261 8.028,16.878 L7.864,16.840 C6.848,16.597 5.915,16.288 5.092,15.921 C3.599,15.254 2.384,14.328 2.023,13.438 C1.907,13.152 1.713,12.461 1.713,12.461 C1.323,10.780 1.266,9.320 1.266,8.101 C1.266,4.750 3.609,1.283 7.529,1.283 C8.547,1.283 9.887,1.755 11.115,2.546 C11.294,2.661 11.550,2.861 11.797,3.053 C11.895,3.130 11.992,3.205 12.083,3.274 C12.376,3.497 12.772,3.788 13.236,4.065 C13.480,4.210 13.702,4.340 13.948,4.446 C14.953,4.878 16.018,5.097 17.115,5.097 C18.234,5.097 19.608,4.822 19.589,4.664 C19.570,4.507 17.279,4.507 15.754,4.097 C15.145,3.934 14.455,3.669 14.455,3.524 C14.455,3.369 14.671,3.248 14.840,3.146 C14.987,3.056 15.154,2.955 15.367,2.836 C16.539,2.181 18.144,1.283 19.470,1.283 C23.391,1.283 25.734,4.750 25.734,8.102 C25.734,9.303 25.578,10.859 25.193,12.561 Z"/>
</svg>