<svg 
 xmlns="http://www.w3.org/2000/svg"
 xmlns:xlink="http://www.w3.org/1999/xlink"
 width="32px" height="29px">
<path fill-rule="evenodd"  fill="rgb(255, 255, 255)"
 d="M31.672,23.188 L15.782,7.275 C15.930,6.870 16.008,6.439 16.008,5.995 C16.008,5.002 15.622,4.070 14.921,3.369 L12.644,1.088 C11.944,0.386 11.012,0.000 10.022,0.000 C9.031,0.000 8.100,0.386 7.399,1.088 L2.489,6.004 L1.482,7.014 C1.295,7.182 1.049,7.575 1.009,7.646 C0.243,9.039 0.659,11.090 2.072,12.825 L0.234,14.666 C-0.078,14.978 -0.078,15.484 0.234,15.796 C0.390,15.952 0.594,16.030 0.798,16.030 C1.003,16.030 1.207,15.952 1.363,15.796 L3.202,13.954 C4.323,14.864 5.627,15.392 6.806,15.392 C6.806,15.392 6.806,15.392 6.806,15.392 C7.028,15.392 7.241,15.373 7.446,15.337 C8.059,15.229 8.590,14.961 9.004,14.547 L9.581,13.969 L11.864,11.683 C12.599,13.033 15.159,17.620 16.928,19.392 L26.195,28.672 C26.414,28.891 26.700,29.000 26.987,29.000 C27.273,29.000 27.560,28.891 27.778,28.672 L31.672,24.773 C32.108,24.336 32.108,23.625 31.672,23.188 ZM8.381,2.071 C8.819,1.632 9.402,1.390 10.022,1.390 C10.642,1.390 11.224,1.632 11.662,2.071 L13.940,4.352 C14.378,4.790 14.619,5.374 14.619,5.995 C14.619,6.615 14.378,7.199 13.940,7.637 L9.538,12.045 L3.979,6.479 L8.381,2.071 ZM26.987,27.499 L17.910,18.409 C16.131,16.627 13.295,11.412 12.928,10.731 L15.098,8.557 L30.500,23.980 L26.987,27.499 Z"/>
</svg>