<svg 
 xmlns="http://www.w3.org/2000/svg"
 xmlns:xlink="http://www.w3.org/1999/xlink"
 width="32px" height="32px">
<path fill-rule="evenodd"  fill="rgb(255, 255, 255)"
 d="M31.964,11.677 L30.682,15.457 C30.562,15.811 30.231,15.906 29.947,15.667 L26.915,13.117 C26.631,12.879 26.689,12.600 27.045,12.499 C27.045,12.499 28.252,12.165 28.650,12.041 C28.710,12.022 28.682,11.951 28.682,11.951 C27.357,5.983 22.063,1.612 15.893,1.612 C9.094,1.612 3.347,7.000 2.810,13.880 C2.777,14.302 2.430,14.622 2.020,14.622 C1.999,14.622 1.978,14.621 1.957,14.620 C1.520,14.584 1.194,14.196 1.229,13.753 C1.521,10.016 3.175,6.549 5.888,3.990 C8.616,1.417 12.169,0.000 15.893,0.000 C19.610,0.000 23.159,1.413 25.885,3.978 C28.072,6.036 29.549,8.613 30.206,11.517 C30.206,11.517 30.215,11.595 30.349,11.555 C30.645,11.467 31.537,11.216 31.537,11.216 C31.892,11.115 32.084,11.322 31.964,11.677 ZM22.144,24.365 C21.397,25.471 20.769,25.986 20.166,25.986 C19.939,25.986 19.382,25.898 19.097,25.084 C18.864,24.421 18.659,23.657 18.441,22.848 C18.116,21.637 17.780,20.386 17.342,19.453 C16.925,18.565 16.498,18.133 16.038,18.133 L15.962,18.133 C14.893,18.133 14.137,20.847 13.584,22.829 C13.357,23.644 13.143,24.413 12.903,25.087 C12.612,25.904 12.050,25.993 11.822,25.993 C11.216,25.993 10.587,25.485 9.842,24.395 C9.248,23.526 8.625,22.345 8.040,20.979 C6.727,17.913 5.943,14.753 5.943,12.527 C5.943,10.941 6.496,9.438 7.499,8.296 C8.558,7.092 10.014,6.429 11.601,6.429 C12.856,6.429 14.172,7.169 15.133,7.709 C15.389,7.853 15.854,8.115 16.000,8.157 C16.146,8.115 16.614,7.852 16.871,7.708 C17.834,7.168 19.153,6.429 20.399,6.429 C21.985,6.429 23.442,7.092 24.501,8.296 C25.504,9.438 26.057,10.941 26.057,12.527 C26.057,14.689 25.269,17.825 23.950,20.916 C23.361,22.294 22.737,23.487 22.144,24.365 ZM20.399,7.603 C19.450,7.603 18.298,8.110 17.436,8.648 C17.189,8.801 16.866,9.012 16.882,9.088 C16.902,9.188 17.355,9.370 17.689,9.460 C18.803,9.760 19.730,9.818 20.033,9.844 C20.294,9.867 21.067,9.821 21.079,9.914 C21.093,10.020 20.391,10.213 20.091,10.286 C19.931,10.325 19.505,10.420 18.663,10.420 C17.841,10.420 17.041,10.255 16.286,9.930 C16.099,9.849 15.932,9.752 15.749,9.642 C15.403,9.435 15.108,9.217 14.889,9.051 C14.822,9.000 14.751,8.944 14.678,8.887 C14.498,8.746 14.311,8.601 14.183,8.518 C13.296,7.945 12.331,7.603 11.601,7.603 C8.782,7.603 7.098,10.106 7.098,12.527 C7.098,14.569 7.864,17.629 9.099,20.511 C9.646,21.788 10.247,22.930 10.791,23.726 C11.326,24.508 11.638,24.839 11.771,24.796 C11.799,24.786 11.844,24.726 11.860,24.681 C12.085,24.048 12.251,23.306 12.472,22.514 C12.824,21.251 13.186,19.950 13.667,18.932 C14.294,17.605 15.044,16.959 15.962,16.959 L16.038,16.959 C16.988,16.959 17.755,17.610 18.384,18.948 C18.867,19.976 19.217,21.279 19.555,22.539 C19.768,23.331 19.934,24.083 20.151,24.701 C20.165,24.741 20.198,24.778 20.224,24.786 C20.358,24.828 20.666,24.480 21.192,23.701 C21.736,22.896 22.339,21.741 22.890,20.449 C24.131,17.542 24.902,14.507 24.902,12.527 C24.902,10.106 23.218,7.603 20.399,7.603 ZM2.054,16.343 L5.085,18.892 C5.369,19.131 5.311,19.410 4.956,19.511 C4.956,19.511 3.872,19.817 3.418,19.950 C3.357,19.968 3.376,20.050 3.376,20.050 C4.699,26.021 9.993,30.389 16.165,30.389 C22.964,30.389 28.711,25.000 29.248,18.120 C29.283,17.677 29.664,17.345 30.101,17.381 C30.537,17.416 30.863,17.804 30.828,18.247 C30.537,21.984 28.882,25.451 26.169,28.010 C23.441,30.583 19.888,32.000 16.164,32.000 C12.447,32.000 8.898,30.587 6.172,28.022 C3.984,25.962 2.506,23.414 1.850,20.507 C1.850,20.507 1.826,20.404 1.772,20.420 C1.323,20.547 0.463,20.793 0.463,20.793 C0.108,20.895 -0.084,20.687 0.036,20.333 L1.318,16.553 C1.439,16.198 1.769,16.104 2.054,16.343 Z"/>
</svg>