<svg 
 xmlns="http://www.w3.org/2000/svg"
 xmlns:xlink="http://www.w3.org/1999/xlink"
 width="17px" height="25px">
<path fill-rule="evenodd"  fill="rgb(52, 152, 219)"
 d="M8.500,-0.000 C3.813,-0.000 -0.000,3.738 -0.000,8.333 C-0.000,9.713 0.352,11.081 1.020,12.294 L8.035,24.731 C8.129,24.897 8.307,25.000 8.500,25.000 C8.693,25.000 8.871,24.897 8.965,24.731 L15.982,12.289 C16.648,11.081 17.000,9.713 17.000,8.333 C17.000,3.738 13.187,-0.000 8.500,-0.000 ZM8.500,12.500 C6.157,12.500 4.250,10.631 4.250,8.333 C4.250,6.036 6.157,4.167 8.500,4.167 C10.843,4.167 12.750,6.036 12.750,8.333 C12.750,10.631 10.843,12.500 8.500,12.500 Z"/>
</svg>