<?xml version="1.0" encoding="iso-8859-1"?>
<!-- Generator: Adobe Illustrator 19.0.0, SVG Export Plug-In . SVG Version: 6.00 Build 0)  -->
<svg xmlns="http://www.w3.org/2000/svg" xmlns:xlink="http://www.w3.org/1999/xlink" version="1.1" id="Layer_1" x="0px" y="0px" viewBox="0 0 512.001 512.001" style="enable-background:new 0 0 512.001 512.001;" xml:space="preserve" width="512px" height="512px">
<g>
	<g>
		<g>
			<path d="M431.139,137.732c-34.761,0-63.041-28.28-63.041-63.04c0-4.143-3.357-7.499-7.499-7.499     c-4.143,0-7.499,3.357-7.499,7.499c0,14.263-4.768,27.43-12.784,38.004c-33.606-17.058-75.948-15.157-113.778,8.164     c-71.782-44.247-158.809-10.854-176.635,80.012c-11.023,57.014,12.952,124.021,63.69,161.676     c-8.733,79.906,26.651,160.883,54.85,148.113v0.001c20.964-9.409,8.746-50.969,20.202-83.511     c13.997-38.389,74.278-43.977,81.081,25.328c1.623,17.533-0.561,32.927,5.036,46.722c1.859,4.791,5.424,9.725,10.242,11.616     c28.635,12.024,63.058-69.766,54.48-148.27c20.452-15.177,37.29-35.644,49.018-59.773c1.81-3.725,0.259-8.212-3.467-10.022     c-3.727-1.814-8.213-0.26-10.022,3.467c-6.531,13.435-13.2,22.148-13.857,23.182c-26.79,35.126-38.31,31.121-37.08,40.606     c9.506,73.382-20.936,135.218-33.317,136.95c-1.281-0.894-2.313-3.958-2.741-5.18c-1.166-4.045-2.225-9.071-2.458-18.764     c-0.072-2.799,0.534-31.59-7.047-51.025c-17.654-50.493-87.439-50.703-104.715,2.25c-9.545,27.958-3.493,58.361-10.086,70.853     c-0.352,0.659-0.815,1.397-1.388,1.867c-12.22-1.71-42.88-63.195-33.322-136.952c0.36-2.78-0.86-5.529-3.164-7.126     c-38.613-26.765-64.062-75.379-63.506-125.357c1.449-93.288,86.041-140.621,160.061-91.51c2.514,1.666,5.78,1.667,8.293-0.001     c32.853-21.8,69.067-24.8,98.516-11.956c-11.348,9.019-25.183,13.678-39.14,13.678c-4.143,0-7.499,3.357-7.499,7.499     s3.357,7.499,7.499,7.499c34.76,0,63.04,28.28,63.04,63.041c0,4.143,3.357,7.499,7.499,7.499s7.499-3.357,7.499-7.499     c0-13.615,4.389-26.865,12.664-37.852c12.758,30.2,12.725,64.824,3.149,95.77c-1.225,3.957,0.991,8.156,4.948,9.381     c3.956,1.227,8.156-0.991,9.381-4.948c11.66-37.684,8.992-76.3-2.67-103.614l0.048,0.111c-0.759-2.057-2.628-6.18-3.602-8.227     c10.758-8.542,24.35-13.663,39.122-13.663c4.143,0,7.499-3.357,7.499-7.499C438.639,141.09,435.282,137.732,431.139,137.732z      M360.569,182.338c-7.658-16.075-20.533-29.096-37.141-37.106c15.364-7.297,29.04-20.049,37.171-37.171     c7.724,16.262,20.909,29.447,37.171,37.171C381.555,152.933,368.199,166.284,360.569,182.338z" fill="#FFFFFF"/>
			<path d="M457.236,44.863c-16.122,0-29.238-13.117-29.238-29.24c0-4.143-3.357-7.499-7.499-7.499S413,11.48,413,15.623     c0,16.123-13.117,29.24-29.24,29.24c-4.143,0-7.499,3.357-7.499,7.499s3.357,7.499,7.499,7.499     c16.123,0,29.24,13.117,29.24,29.241c0,4.143,3.357,7.499,7.499,7.499s7.499-3.357,7.499-7.499     c0-16.124,13.116-29.241,29.238-29.241c4.143,0,7.499-3.357,7.499-7.499S461.378,44.863,457.236,44.863z M420.498,64.482     c-3.215-4.781-7.339-8.905-12.12-12.12c4.781-3.215,8.905-7.339,12.12-12.12c3.215,4.781,7.338,8.905,12.119,12.12     C427.836,55.577,423.713,59.701,420.498,64.482z" fill="#FFFFFF"/>
			<path d="M265.466,43.457c11.556,0,20.956,9.401,20.956,20.957c0,4.143,3.358,7.499,7.499,7.499c4.143,0,7.499-3.357,7.499-7.499     c0-11.556,9.401-20.957,20.957-20.957c4.143,0,7.499-3.357,7.499-7.499c0-4.142-3.357-7.499-7.499-7.499     c-11.556,0-20.957-9.401-20.957-20.958c0-4.143-3.357-7.499-7.499-7.499c-4.142,0-7.499,3.357-7.499,7.499     c0,11.557-9.4,20.958-20.956,20.958c-4.142,0-7.499,3.358-7.499,7.499C257.966,40.1,261.324,43.457,265.466,43.457z      M293.922,29.456c1.882,2.433,4.069,4.62,6.502,6.502c-2.433,1.881-4.62,4.069-6.502,6.501c-1.881-2.433-4.069-4.621-6.502-6.501     C289.853,34.075,292.042,31.889,293.922,29.456z" fill="#FFFFFF"/>
		</g>
	</g>
</g>
<g>
</g>
<g>
</g>
<g>
</g>
<g>
</g>
<g>
</g>
<g>
</g>
<g>
</g>
<g>
</g>
<g>
</g>
<g>
</g>
<g>
</g>
<g>
</g>
<g>
</g>
<g>
</g>
<g>
</g>
</svg>
