<?xml version="1.0" encoding="iso-8859-1"?>
<!-- Generator: Adobe Illustrator 19.0.0, SVG Export Plug-In . SVG Version: 6.00 Build 0)  -->
<svg xmlns="http://www.w3.org/2000/svg" xmlns:xlink="http://www.w3.org/1999/xlink" version="1.1" id="Layer_1" x="0px" y="0px" viewBox="0 0 512 512" style="enable-background:new 0 0 512 512;" xml:space="preserve" width="512px" height="512px">
<g>
	<g>
		<g>
			<path d="M324.845,311.218c5.328-4.109,10.253-8.86,14.683-14.168c2.653-3.18,2.227-7.909-0.953-10.562     c-3.182-2.652-7.91-2.227-10.562,0.953c-12.498,14.978-19.526,13.684-18.542,21.263c4.415,33.981-6.487,65.181-14.933,74.233     c-2.165-8.094,0.196-17.031-3.218-32.411c-6.137-27.228-27.903-35.526-46.934-29.314c-30.435,10.093-24.076,52.098-26.641,61.715     c-7.532-8.144-19.54-38.608-14.936-74.225c0.36-2.779-0.86-5.528-3.164-7.126c-29.721-20.601-43.596-62.621-30.411-96.141h-0.001     c10.181-25.644,33.669-38.713,59.125-34.014c21.284,4.027,24.381,14.852,31.93,9.84c55.023-36.494,109.597,24.585,79.227,88.191     c-1.783,3.738-0.198,8.214,3.539,9.997c3.738,1.782,8.214,0.199,9.997-3.539c35.854-75.21-28.984-149.469-96.91-109.725     c-65.006-38.034-129.468,29.397-99.53,103.757c6.728,16.711,17.335,30.895,30.824,41.281     c-3.988,41.437,12.268,88.182,31.567,88.199c12.465,0,14.839-15.499,14.839-27.907c0-7.529,0.822-16.317,3.376-23.401     c6.832-19.616,36.798-20.679,40.301,10.134c1.809,12.173-0.275,21.942,3.513,31.583c4.335,11.031,13.714,9.589,12.247,9.591     C312.171,399.403,328.873,353.05,324.845,311.218z" fill="#FFFFFF"/>
			<path d="M511.984,250.491c0.171-2.68-1.102-5.244-3.34-6.728c-23.265-15.422-54.044-11.538-72.713,8.838     c-0.321-7.285-1.05-14.489-2.175-21.587c39.817-1.374,65.084-42.158,50.031-78.143c-1.036-2.477-3.316-4.211-5.981-4.547     c-25.318-3.186-49.068,10.724-58.892,33.659c-2.408-5.226-5.044-10.339-7.926-15.313c35.611-18.345,41.12-66.462,11.458-92.543     c-2.017-1.773-4.825-2.335-7.367-1.469c-21.735,7.395-37.386,27.626-38.234,51.314c-1.651-1.531-8.979-8.145-10.864-9.209     c0.414-41.231-42.289-69.328-80.145-51.783c-2.436,1.129-4.081,3.473-4.316,6.148c-3.599,41.001,36.684,72.324,75.86,57.805     c0.075,0.065,0.145,0.136,0.224,0.199c103.238,83.057,75.226,249.318-45.697,294.052c-3.884,1.438-5.868,5.751-4.431,9.635     c1.437,3.882,5.748,5.868,9.635,4.431c11.33-4.191,22.064-9.491,32.112-15.748c15.004,36.069,61.861,46.877,90.931,19.309     c1.948-1.848,2.759-4.595,2.129-7.204c-6.124-25.324-29.1-43.595-55.6-43.188c6.118-6.647,11.749-13.741,16.843-21.223     c28.053,27.455,74.306,18.461,90.598-16.512c1.134-2.434,0.88-5.287-0.665-7.482c-15.227-21.635-43.477-29.888-67.951-19.574     c2.88-8.215,5.202-16.671,6.935-25.31C468.296,314.572,509.47,289.906,511.984,250.491z M496.49,253.987     c-4.799,27.56-34.956,42.619-59.84,29.716C441.469,256.045,471.691,241.126,496.49,253.987z M296.312,74.925     c26.886-9.062,54.087,10.723,54.675,38.386C324.198,122.344,296.9,102.706,296.312,74.925z M396.715,145.56     c-11.394-21.373-2.159-47.136,19.034-57.029c18.836,20.6,12.387,53.467-12.852,65.416     C400.919,151.097,398.857,148.301,396.715,145.56z M426.419,430.841c-22.286,17.031-54.599,7.343-64.071-18.945     C384.629,394.867,416.949,404.56,426.419,430.841z M478.418,348.309c-7.321,12.084-20.619,20.011-35.49,20.011     c1.181,0-17.42,1.417-31.055-14.098C426.307,330.396,459.797,327.127,478.418,348.309z M471.457,162.885     c7.875,26.643-12.174,53.691-40.432,53.184C423.135,189.375,443.193,162.426,471.457,162.885z" fill="#FFFFFF"/>
			<path d="M200.37,421.184C97.803,383.24,58.637,254.333,121.216,163.222c6.874-7.869,7.283-13.641,33.601-36.216     c39.209,14.367,79.249-16.994,75.662-57.878c-0.235-2.674-1.882-5.02-4.316-6.149c-7.412-3.435-15.649-5.25-23.824-5.25     c-31.41,0-56.728,25.79-56.323,57.198c-1.083,0.671-6.315,5.073-10.852,9.296c-0.74-23.659-16.31-44.103-38.246-51.565     c-2.544-0.866-5.352-0.305-7.367,1.469c-29.847,26.244-23.963,74.494,11.677,92.657c-2.915,5.04-5.58,10.222-8.009,15.518     c-9.741-23.121-33.59-37.179-59.029-33.977c-2.664,0.336-4.944,2.07-5.98,4.547c-15.195,36.331,10.586,76.971,50.311,78.151     c-1.141,7.192-1.871,14.494-2.186,21.878c-18.7-20.699-49.664-24.592-72.98-9.137c-2.238,1.482-3.511,4.048-3.34,6.728     c2.496,39.128,43.568,64.355,79.797,47.713c1.745,8.727,4.091,17.269,7.007,25.563c-24.606-10.549-53.022-2.241-68.278,19.435     c-1.545,2.195-1.799,5.049-0.665,7.482c16.227,34.836,62.606,44.141,90.766,16.346c5.125,7.546,10.794,14.697,16.96,21.394     c-27.18-0.46-49.843,18.192-55.886,43.182c-0.631,2.609,0.181,5.356,2.129,7.204c28.7,27.216,75.822,17.282,90.988-19.45     c10.111,6.317,20.921,11.666,32.335,15.889c3.886,1.437,8.198-0.549,9.635-4.431C206.238,426.935,204.254,422.621,200.37,421.184     z M215.687,74.925c-0.592,27.836-27.938,47.395-54.676,38.386C161.602,85.523,188.897,65.898,215.687,74.925z M96.249,88.531     c25.582,11.943,31.825,45.144,13.056,65.518C83.94,142.209,77.337,109.215,96.249,88.531z M15.508,253.987     c24.82-12.871,55.019,2.046,59.841,29.716C50.409,296.636,20.296,281.478,15.508,253.987z M80.973,216.069     c-28.317,0.499-48.285-26.607-40.432-53.184C68.999,162.435,88.803,189.584,80.973,216.069z M33.581,348.309     c18.582-21.135,52.08-17.963,66.546,5.913C81.551,375.359,48.042,372.182,33.581,348.309z M85.579,430.841     c9.457-26.241,41.753-36.002,64.07-18.945C140.148,438.266,107.796,447.817,85.579,430.841z" fill="#FFFFFF"/>
		</g>
	</g>
</g>
<g>
</g>
<g>
</g>
<g>
</g>
<g>
</g>
<g>
</g>
<g>
</g>
<g>
</g>
<g>
</g>
<g>
</g>
<g>
</g>
<g>
</g>
<g>
</g>
<g>
</g>
<g>
</g>
<g>
</g>
</svg>
